<svg width="19" height="19" viewBox="0 0 19 19" fill="none" xmlns="http://www.w3.org/2000/svg">
	<path fill-rule="evenodd" clip-rule="evenodd" d="M18.5468 0.43934C17.961 -0.146447 17.0112 -0.146447 16.4254 0.43934L8.64727 8.21751C8.39765 8.46713 8.2544 8.78284 8.21752 9.10831C8.16527 9.549 8.30822 10.0084 8.64637 10.3466L16.4245 18.1247C17.0103 18.7105 17.9601 18.7105 18.5459 18.1247C19.1317 17.539 19.1317 16.5892 18.5459 16.0034L11.8249 9.28249L18.5468 2.56066C19.1325 1.97487 19.1325 1.02513 18.5468 0.43934Z" fill="#2E3236"/>
	<path fill-rule="evenodd" clip-rule="evenodd" d="M10.3397 0.43934C9.75394 -0.146447 8.8042 -0.146447 8.21841 0.43934L0.440236 8.21751C0.190623 8.46713 0.047374 8.78283 0.0104894 9.10829C-0.0417605 9.54898 0.10119 10.0084 0.43934 10.3466L8.21751 18.1247C8.8033 18.7105 9.75305 18.7105 10.3388 18.1247C10.9246 17.539 10.9246 16.5892 10.3388 16.0034L3.6179 9.28249L10.3397 2.56066C10.9255 1.97487 10.9255 1.02513 10.3397 0.43934Z" fill="#2E3236"/>
</svg>
