<svg width="54" height="54" viewBox="0 0 54 54" fill="none" xmlns="http://www.w3.org/2000/svg">
<rect width="54" height="54" fill="#D9D9D9"/>
<path d="M11.2521 30V21.2727H12.3089V29.0625H16.3658V30H11.2521ZM25.0259 25.6364C25.0259 26.5568 24.8597 27.3523 24.5273 28.0227C24.195 28.6932 23.739 29.2102 23.1594 29.5739C22.5799 29.9375 21.918 30.1193 21.1737 30.1193C20.4293 30.1193 19.7674 29.9375 19.1879 29.5739C18.6083 29.2102 18.1523 28.6932 17.82 28.0227C17.4876 27.3523 17.3214 26.5568 17.3214 25.6364C17.3214 24.7159 17.4876 23.9205 17.82 23.25C18.1523 22.5795 18.6083 22.0625 19.1879 21.6989C19.7674 21.3352 20.4293 21.1534 21.1737 21.1534C21.918 21.1534 22.5799 21.3352 23.1594 21.6989C23.739 22.0625 24.195 22.5795 24.5273 23.25C24.8597 23.9205 25.0259 24.7159 25.0259 25.6364ZM24.0032 25.6364C24.0032 24.8807 23.8768 24.2429 23.6239 23.723C23.3739 23.2031 23.0344 22.8097 22.6055 22.5426C22.1793 22.2756 21.7021 22.142 21.1737 22.142C20.6452 22.142 20.1665 22.2756 19.7376 22.5426C19.3114 22.8097 18.9719 23.2031 18.7191 23.723C18.4691 24.2429 18.3441 24.8807 18.3441 25.6364C18.3441 26.392 18.4691 27.0298 18.7191 27.5497C18.9719 28.0696 19.3114 28.4631 19.7376 28.7301C20.1665 28.9972 20.6452 29.1307 21.1737 29.1307C21.7021 29.1307 22.1793 28.9972 22.6055 28.7301C23.0344 28.4631 23.3739 28.0696 23.6239 27.5497C23.8768 27.0298 24.0032 26.392 24.0032 25.6364ZM32.7688 24C32.6751 23.7131 32.5515 23.456 32.3981 23.2287C32.2475 22.9986 32.0671 22.8026 31.8569 22.6406C31.6495 22.4787 31.4137 22.3551 31.1495 22.2699C30.8853 22.1847 30.5955 22.142 30.2802 22.142C29.7631 22.142 29.293 22.2756 28.8697 22.5426C28.4464 22.8097 28.1097 23.2031 27.8597 23.723C27.6097 24.2429 27.4847 24.8807 27.4847 25.6364C27.4847 26.392 27.6112 27.0298 27.864 27.5497C28.1168 28.0696 28.4592 28.4631 28.891 28.7301C29.3228 28.9972 29.8086 29.1307 30.3484 29.1307C30.8484 29.1307 31.2887 29.0241 31.6694 28.8111C32.0529 28.5952 32.3512 28.2912 32.5643 27.8991C32.7802 27.5043 32.8881 27.0398 32.8881 26.5057L33.212 26.5739H30.587V25.6364H33.9109V26.5739C33.9109 27.2926 33.7575 27.9176 33.4506 28.4489C33.1467 28.9801 32.7262 29.392 32.1893 29.6847C31.6552 29.9744 31.0415 30.1193 30.3484 30.1193C29.5756 30.1193 28.8967 29.9375 28.3114 29.5739C27.729 29.2102 27.2745 28.6932 26.9478 28.0227C26.6239 27.3523 26.462 26.5568 26.462 25.6364C26.462 24.946 26.5543 24.3253 26.739 23.7741C26.9265 23.2202 27.1907 22.7486 27.5316 22.3594C27.8725 21.9702 28.2759 21.6719 28.7418 21.4645C29.2077 21.2571 29.7205 21.1534 30.2802 21.1534C30.7404 21.1534 31.1694 21.223 31.5671 21.3622C31.9677 21.4986 32.3242 21.6932 32.6367 21.946C32.9521 22.196 33.2148 22.4957 33.4251 22.8452C33.6353 23.1918 33.7802 23.5767 33.8597 24H32.7688ZM43.0845 25.6364C43.0845 26.5568 42.9183 27.3523 42.5859 28.0227C42.2536 28.6932 41.7976 29.2102 41.218 29.5739C40.6385 29.9375 39.9766 30.1193 39.2322 30.1193C38.4879 30.1193 37.826 29.9375 37.2464 29.5739C36.6669 29.2102 36.2109 28.6932 35.8786 28.0227C35.5462 27.3523 35.38 26.5568 35.38 25.6364C35.38 24.7159 35.5462 23.9205 35.8786 23.25C36.2109 22.5795 36.6669 22.0625 37.2464 21.6989C37.826 21.3352 38.4879 21.1534 39.2322 21.1534C39.9766 21.1534 40.6385 21.3352 41.218 21.6989C41.7976 22.0625 42.2536 22.5795 42.5859 23.25C42.9183 23.9205 43.0845 24.7159 43.0845 25.6364ZM42.0618 25.6364C42.0618 24.8807 41.9354 24.2429 41.6825 23.723C41.4325 23.2031 41.093 22.8097 40.6641 22.5426C40.2379 22.2756 39.7607 22.142 39.2322 22.142C38.7038 22.142 38.2251 22.2756 37.7962 22.5426C37.37 22.8097 37.0305 23.2031 36.7777 23.723C36.5277 24.2429 36.4027 24.8807 36.4027 25.6364C36.4027 26.392 36.5277 27.0298 36.7777 27.5497C37.0305 28.0696 37.37 28.4631 37.7962 28.7301C38.2251 28.9972 38.7038 29.1307 39.2322 29.1307C39.7607 29.1307 40.2379 28.9972 40.6641 28.7301C41.093 28.4631 41.4325 28.0696 41.6825 27.5497C41.9354 27.0298 42.0618 26.392 42.0618 25.6364Z" fill="#0E0E0E"/>
</svg>
