<svg width="55" height="54" viewBox="0 0 55 54" fill="none" xmlns="http://www.w3.org/2000/svg">
<path d="M0 6.35294C0 2.84431 2.84431 0 6.35294 0H41.2941V6.35294H0Z" fill="#BBBBBB"/>
<path d="M0 47.6471H41.2941V54H6.35294C2.84431 54 0 51.1557 0 47.6471Z" fill="#BBBBBB"/>
<path d="M6.35294 0L6.35294 54C2.84431 54 3.78665e-07 51.1557 3.78665e-07 47.6471L3.78665e-07 6.35293C3.78665e-07 2.8443 2.84431 0 6.35294 0Z" fill="#BBBBBB"/>
<path d="M54.4142 28.4142C55.1952 27.6332 55.1952 26.3668 54.4142 25.5858L41.6863 12.8579C40.9052 12.0768 39.6389 12.0768 38.8578 12.8579C38.0768 13.6389 38.0768 14.9052 38.8578 15.6863L50.1715 27L38.8578 38.3137C38.0768 39.0948 38.0768 40.3611 38.8578 41.1421C39.6389 41.9232 40.9052 41.9232 41.6863 41.1421L54.4142 28.4142ZM18.2647 29H53V25H18.2647V29Z" fill="#BBBBBB"/>
</svg>
